<svg xmlns="http://www.w3.org/2000/svg" width="1024" height="1024">
  <path fill="#f0f0f0" d="M128 0h768c70.692 0 128 57.308 128 128v768c0 70.692-57.308 128-128 128H128C57.308 1024 0 966.692 0 896V128C0 57.308 57.308 0 128 0z"/>
  <path fill="#00b068" d="M96 304h82.519c53.266 0 89.242 2.398 107.93 7.195 18.861 4.796 33.182 12.676 42.962 23.639s15.892 23.211 18.337 36.744c2.445 13.361 3.668 39.741 3.668 79.14v145.69c0 37.343-1.834 62.351-5.501 75.029-3.492 12.506-9.693 22.355-18.6 29.549-8.906 7.021-19.909 11.994-33.007 14.906-13.098 2.739-32.833 4.109-59.204 4.109H96.001v-416zm110.287 71.175v273.651c15.892 0 25.672-3.085 29.34-9.251 3.667-6.338 5.501-23.382 5.501-51.133v-161.62c0-18.843-.611-30.92-1.834-36.23s-4.017-9.165-8.383-11.563c-4.366-2.57-12.575-3.854-24.625-3.854zM417.693 304h183.899v83.251H527.98v78.883h68.897v79.14H527.98v91.474h80.947v83.251H417.693v-416zM928 304l-56.058 416H704.544L640.89 304h116.307c13.453 114.599 23.053 211.469 28.819 290.609 5.76-79.997 11.789-151.086 18.074-213.268L811.687 304h116.314z"/>
</svg>
