<svg xmlns="http://www.w3.org/2000/svg" aria-hidden="true" style="position:absolute;width:0;height:0;overflow:hidden">
  <defs>
    <symbol id="burger" viewBox="0 0 32 32">
      <path
        d="M5.334 23.027v-1.333h21.333v1.333H5.334zm0-6.36v-1.333h21.333v1.333H5.334zm0-6.36V8.974h21.333v1.333H5.334z" />
    </symbol>
    <symbol id="chevron-up" viewBox="0 0 32 32">
      <path stroke-linecap="round" stroke-width="2.667" d="m24 20-8-8-8 8" />
    </symbol>
    <symbol id="icon-hero-arrow" viewBox="0 0 60 32">
      <path fill="#00b068" style="fill: var(--color1, #00b068)"
        d="M2 14c-1.105 0-2 0.895-2 2s0.895 2 2 2v-4zM59.414 17.414c0.781-0.781 0.781-2.047 0-2.828l-12.728-12.728c-0.781-0.781-2.047-0.781-2.828 0s-0.781 2.047 0 2.828l11.314 11.314-11.314 11.314c-0.781 0.781-0.781 2.047 0 2.828s2.047 0.781 2.828 0l12.728-12.728zM2 18h56v-4h-56v4z">
      </path>
    </symbol>
    <symbol id="menu-close-icon" viewBox="0 0 32 32">
      <path stroke-linecap="round" stroke-linejoin="round" stroke-width="2" d="M24 8 8 24M8 8l16 16" />
    </symbol>
    <symbol id="x" viewBox="0 0 32 32">
      <path stroke-linejoin="round" stroke-linecap="round" stroke-width="2.667" d="M24 8 8 24M8 8l16 16" />
    </symbol>
    <symbol id="ep_success-filled" viewBox="0 0 32 32">
      <path
        d="M16 2a14.002 14.002 0 0 1 14 14c0 3.713-1.475 7.274-4.101 9.899a13.996 13.996 0 0 1-19.798 0 13.996 13.996 0 0 1 0-19.798A13.998 13.998 0 0 1 16 2zm-1.744 16.762-3.11-3.112a1.196 1.196 0 0 0-.849-.351 1.2 1.2 0 0 0-.849 2.049l3.96 3.96a1.197 1.197 0 0 0 1.698 0l8.2-8.202a1.187 1.187 0 0 0 .358-.85 1.203 1.203 0 0 0-.742-1.115c-.146-.06-.303-.091-.462-.091s-.315.032-.461.094a1.202 1.202 0 0 0-.39.264l-7.354 7.354z" />
    </symbol>
    <symbol id="icon-2" viewBox="0 0 32 32">
      <path stroke-linejoin="round" stroke-linecap="round" stroke-width="1.333"
        d="M20 14a4.003 4.003 0 0 1-4 4 4.003 4.003 0 0 1-4-4 4.003 4.003 0 0 1 4-4 4.003 4.003 0 0 1 4 4z" />
      <path stroke-linejoin="round" stroke-linecap="round" stroke-width="1.333"
        d="M26 14c0 9.523-10 15-10 15S6 23.523 6 14a10.001 10.001 0 0 1 20 0z" />
    </symbol>
    <symbol id="icon-1" viewBox="0 0 32 32">
      <path stroke-linejoin="round" stroke-linecap="round" stroke-width="1.333"
        d="M29 9v14a3.004 3.004 0 0 1-3 3H6a3.004 3.004 0 0 1-3-3V9m26 0a3.004 3.004 0 0 0-3-3H6a3.004 3.004 0 0 0-3 3m26 0v.324a2.998 2.998 0 0 1-1.427 2.555l-10 6.153a3.004 3.004 0 0 1-3.146 0l-10-6.152A3.001 3.001 0 0 1 3 9.325V9" />
    </symbol>
    <symbol id="icon" viewBox="0 0 32 32">
      <path stroke-linejoin="round" stroke-linecap="round" stroke-width="1.333"
        d="M3 9c0 11.045 8.955 20 20 20h3a3.004 3.004 0 0 0 3-3v-1.829a1.5 1.5 0 0 0-1.136-1.455l-5.897-1.475a1.498 1.498 0 0 0-1.564.556l-1.293 1.724c-.376.501-1.025.723-1.613.507a16.028 16.028 0 0 1-9.524-9.524c-.216-.588.005-1.237.507-1.613l1.724-1.293c.484-.361.703-.979.556-1.564L9.285 4.137A1.498 1.498 0 0 0 7.83 3.001H6.001a3.004 3.004 0 0 0-3 3v3z" />
    </symbol>
  </defs>
</svg>