<svg xmlns="http://www.w3.org/2000/svg" aria-hidden="true" style="position:absolute;width:0;height:0;overflow:hidden">
  <defs>  
    <symbol id="burger" viewBox="0 0 32 32">
      <path
        d="M5.334 23.027v-1.333h21.333v1.333H5.334zm0-6.36v-1.333h21.333v1.333H5.334zm0-6.36V8.974h21.333v1.333H5.334z" />
    </symbol>
    <symbol id="chevron-up" viewBox="0 0 32 32">
      <path stroke-linecap="round" stroke-width="2.667" d="m24 20-8-8-8 8" />
    </symbol>
    <symbol id="icon-arrow-down" viewBox="0 0 32 32">
      <path d="M9 18c.278 0 .555.116.753.341L16 25.481l6.247-7.14a1 1 0 1 1 1.505 1.317l-7 8a1 1 0 0 1-1.506 0l-7-8A1 1 0 0 1 8.998 18z"/>
    <symbol id="icon-hero-arrow" viewBox="0 0 60 32">
      <path fill="#00b068" style="fill: var(--color1, #00b068)"
        d="M2 14c-1.105 0-2 0.895-2 2s0.895 2 2 2v-4zM59.414 17.414c0.781-0.781 0.781-2.047 0-2.828l-12.728-12.728c-0.781-0.781-2.047-0.781-2.828 0s-0.781 2.047 0 2.828l11.314 11.314-11.314 11.314c-0.781 0.781-0.781 2.047 0 2.828s2.047 0.781 2.828 0l12.728-12.728zM2 18h56v-4h-56v4z">
      </path>
    </symbol>
    <symbol id="close" viewBox="0 0 32 32">
      <path stroke-linecap="round" stroke-linejoin="round" stroke-width="2" d="M24 8 8 24M8 8l16 16"/>
    </symbol>
    <symbol id="ep_success-filled" viewBox="0 0 32 32">
      <path
        d="M16 2a14.002 14.002 0 0 1 14 14c0 3.713-1.475 7.274-4.101 9.899a13.996 13.996 0 0 1-19.798 0 13.996 13.996 0 0 1 0-19.798A13.998 13.998 0 0 1 16 2zm-1.744 16.762-3.11-3.112a1.196 1.196 0 0 0-.849-.351 1.2 1.2 0 0 0-.849 2.049l3.96 3.96a1.197 1.197 0 0 0 1.698 0l8.2-8.202a1.187 1.187 0 0 0 .358-.85 1.203 1.203 0 0 0-.742-1.115c-.146-.06-.303-.091-.462-.091s-.315.032-.461.094a1.202 1.202 0 0 0-.39.264l-7.354 7.354z" />
    </symbol>
    <symbol id="icon-2" viewBox="0 0 32 32">
      <path stroke-linejoin="round" stroke-linecap="round" stroke-width="1.333"
        d="M20 14a4.003 4.003 0 0 1-4 4 4.003 4.003 0 0 1-4-4 4.003 4.003 0 0 1 4-4 4.003 4.003 0 0 1 4 4z" />
      <path stroke-linejoin="round" stroke-linecap="round" stroke-width="1.333"
        d="M26 14c0 9.523-10 15-10 15S6 23.523 6 14a10.001 10.001 0 0 1 20 0z" />
    </symbol>
    <symbol id="icon-1" viewBox="0 0 32 32">
      <path stroke-linejoin="round" stroke-linecap="round" stroke-width="1.333"
        d="M29 9v14a3.004 3.004 0 0 1-3 3H6a3.004 3.004 0 0 1-3-3V9m26 0a3.004 3.004 0 0 0-3-3H6a3.004 3.004 0 0 0-3 3m26 0v.324a2.998 2.998 0 0 1-1.427 2.555l-10 6.153a3.004 3.004 0 0 1-3.146 0l-10-6.152A3.001 3.001 0 0 1 3 9.325V9" />
    </symbol>
    <symbol id="icon" viewBox="0 0 32 32">
      <path stroke-linejoin="round" stroke-linecap="round" stroke-width="1.333"
        d="M3 9c0 11.045 8.955 20 20 20h3a3.004 3.004 0 0 0 3-3v-1.829a1.5 1.5 0 0 0-1.136-1.455l-5.897-1.475a1.498 1.498 0 0 0-1.564.556l-1.293 1.724c-.376.501-1.025.723-1.613.507a16.028 16.028 0 0 1-9.524-9.524c-.216-.588.005-1.237.507-1.613l1.724-1.293c.484-.361.703-.979.556-1.564L9.285 4.137A1.498 1.498 0 0 0 7.83 3.001H6.001a3.004 3.004 0 0 0-3 3v3z" />
    </symbol>
    <symbol id="icon-arrow-right2" viewBox="0 0 32 32">
    <path d="M19.414 27.414l10-10c0.781-0.781 0.781-2.047 0-2.828l-10-10c-0.781-0.781-2.047-0.781-2.828 0s-0.781 2.047 0 2.828l6.586 6.586h-19.172c-1.105 0-2 0.895-2 2s0.895 2 2 2h19.172l-6.586 6.586c-0.39 0.39-0.586 0.902-0.586 1.414s0.195 1.024 0.586 1.414c0.781 0.781 2.047 0.781 2.828 0z"></path>
    </symbol>
    <symbol id="brush-icon" viewBox="0 0 32 32">
    <path stroke-linecap="round" stroke-linejoin="round" stroke-width="2.667" d="M17.037 20.001 12 14.964M2.667 29.332c2.667 0 6.144.456 7.966-1.367a4.668 4.668 0 0 0-6.6-6.6c-1.823 1.822 0 5.3-1.367 7.967z"/>
    <path stroke-linecap="round" stroke-linejoin="round" stroke-width="2.667" d="M10.667 21.332c-.655-.655-.983-.983-1.168-1.326a2.668 2.668 0 0 1 .05-2.623c.198-.336.538-.651 1.218-1.28L23.924 3.92a2.94 2.94 0 0 1 4.153 4.153L15.894 21.23c-.63.68-.944 1.02-1.28 1.218-.805.475-1.8.495-2.623.05-.343-.185-.671-.513-1.326-1.168z"/>
    </symbol>
    <symbol id="hourglass-icon" viewBox="0 0 32 32">
    <path stroke-linecap="round" stroke-linejoin="round" stroke-width="2.667" d="M24.217 2.667H7.783c-.617 0-1.117.5-1.117 1.117a13.4 13.4 0 0 0 3.925 9.475l1.626 1.626c.161.161.242.242.3.32a1.335 1.335 0 0 1 0 1.594c-.058.077-.139.158-.3.32l-1.626 1.626a13.4 13.4 0 0 0-3.925 9.475c0 .617.5 1.117 1.117 1.117h16.434c.617 0 1.117-.5 1.117-1.117a13.4 13.4 0 0 0-3.925-9.475l-1.626-1.626c-.161-.161-.242-.242-.3-.32a1.332 1.332 0 0 1 0-1.594c.058-.077.139-.158.3-.32l1.626-1.626a13.4 13.4 0 0 0 3.925-9.475c0-.617-.5-1.117-1.117-1.117z"/>
    </symbol>
    <symbol id="message-icon" viewBox="0 0 32 32">
    <path stroke-linecap="round" stroke-linejoin="round" stroke-width="2.667" d="M8.126 14.972A10.66 10.66 0 0 1 8 13.334C8 7.443 12.807 2.667 18.737 2.667s10.737 4.776 10.737 10.667c0 1.331-.245 2.605-.693 3.779-.093.244-.14.366-.161.461s-.029.161-.031.257c-.002.097.011.205.037.42l.537 4.36c.058.472.087.708.009.88a.667.667 0 0 1-.343.335c-.173.075-.409.04-.879-.029l-4.247-.623a2.965 2.965 0 0 0-.434-.048c-.1.001-.169.008-.267.028s-.225.068-.477.163a10.78 10.78 0 0 1-3.787.683c-.558 0-1.105-.042-1.64-.124m-6.923 5.457c3.953 0 7.158-3.283 7.158-7.333s-3.205-7.333-7.158-7.333c-3.953 0-7.158 3.283-7.158 7.333 0 .814.13 1.597.369 2.329.101.309.152.464.168.57.017.11.02.172.014.284-.006.107-.033.227-.086.469l-.815 3.682 3.993-.545c.218-.03.327-.045.422-.044.1.001.153.006.252.026.093.019.232.067.51.165a6.994 6.994 0 0 0 2.332.398z"/>
    </symbol>
    <symbol id="user-icon" viewBox="0 0 32 32">
    <path stroke-linecap="round" stroke-linejoin="round" stroke-width="2.667" d="M26.667 28c0-1.861 0-2.791-.23-3.548a5.333 5.333 0 0 0-3.556-3.556c-.757-.23-1.687-.23-3.548-.23h-6.667c-1.861 0-2.791 0-3.548.23a5.335 5.335 0 0 0-3.556 3.556c-.23.757-.23 1.687-.23 3.548M16 16a6 6 0 1 0 0-12 6 6 0 0 0 0 12z"/>
    </symbol>
    <defs>
    <symbol id="close-answer" viewBox="0 0 32 32">
      <path stroke-linecap="round" stroke-linejoin="round" stroke-width="2.667" d="M24 8 8 24M8 8l16 16"/>
    </symbol>
  </defs>
</svg>